<svg width="211" height="67" viewBox="0 0 211 67" fill="none" xmlns="http://www.w3.org/2000/svg">
<g clip-path="url(#clip0_3_732)">
<path d="M39.1703 17.0799C38.4833 12.0153 35.928 7.48358 31.9751 4.32409C23.7729 -2.2401 11.8953 -1.22152 4.93542 6.63948C1.57546 10.4356 -0.1704 15.3257 0.0131272 20.4045C0.196655 25.4785 2.29545 30.2696 5.91894 33.8912L25.7305 53.6923L26.267 53.0887C29.2034 49.8018 29.2175 44.5392 26.3046 41.5966L12.0695 27.228C10.0789 25.2192 8.99185 22.5407 9.00597 19.683C9.02009 16.8253 10.1448 14.1421 12.1683 12.1379C15.8718 8.47387 21.6505 8.02116 25.9046 11.0675C29.5234 13.6564 31.1328 18.3154 29.914 22.6586C29.3257 24.7429 29.9328 27.0111 31.4998 28.5767L35.0198 32.0993L35.5468 31.3825C38.5774 27.2563 39.8621 22.1728 39.1703 17.0752V17.0799Z" fill="#5AEDC9"/>
<path d="M33.9785 33.8395L13.5458 13.3123L13.0093 13.9583C10.1246 17.4479 10.1011 22.4418 12.967 25.3325L27.2115 39.7199C29.1033 41.6298 30.2044 44.1621 30.3174 46.8453C30.4256 49.5143 29.5503 52.1126 27.8468 54.1592C24.3221 58.3939 18.021 59.2097 13.5128 56.0172C9.8423 53.4189 8.19055 48.7504 9.40465 44.4026C9.99759 42.2805 9.37171 39.9746 7.78114 38.3807L4.30824 34.9052L3.78119 35.6267C-2.27992 43.9593 -0.910526 55.6824 6.89645 62.3126C10.5905 65.4532 15.1316 67 19.654 67C24.8539 67 30.035 64.9534 33.8797 60.9309C41.1925 53.2821 41.2349 41.1299 33.9785 33.8395Z" fill="#027DDC"/>
<path d="M62.2077 51.5043L66.4382 47.7177C66.73 47.4442 66.89 47.1235 66.9088 46.7604C66.9276 46.3973 66.8006 46.0577 66.5276 45.7701C66.2688 45.473 65.9488 45.308 65.5771 45.2891C65.2053 45.2655 64.8665 45.4023 64.5747 45.6711L59.1771 50.4999V41.2855C59.1771 40.8564 59.0407 40.5027 58.7724 40.2339C58.5042 39.9651 58.1513 39.8284 57.723 39.8284C57.2948 39.8284 56.9419 39.9651 56.6736 40.2339C56.4054 40.5027 56.2689 40.8564 56.2689 41.2855V57.7761C56.2689 58.2053 56.4054 58.5589 56.6736 58.8277C56.9419 59.0965 57.2948 59.2333 57.723 59.2333C58.1513 59.2333 58.5042 59.0965 58.7724 58.8277C59.0407 58.5589 59.1771 58.2053 59.1771 57.7761V54.2111L60.0712 53.4142L64.4759 58.8702C64.7347 59.1861 65.0594 59.3653 65.45 59.3936C65.4876 59.3936 65.53 59.3983 65.5676 59.3983C65.9065 59.3983 66.217 59.2852 66.4994 59.0541C66.8288 58.7806 67.0123 58.4505 67.0453 58.0779C67.0735 57.7101 66.9606 57.3612 66.7065 57.0499L62.2077 51.4996V51.5043Z" fill="white"/>
<path d="M80.752 46.2793C79.7167 45.6851 78.5214 45.3833 77.1944 45.3833C75.8673 45.3833 74.6485 45.6851 73.6132 46.2793C72.578 46.8734 71.7544 47.7034 71.1615 48.7503C70.5686 49.7924 70.2721 51.0138 70.2721 52.3766C70.2721 53.7394 70.5733 54.9325 71.1615 55.9794C71.7544 57.0262 72.578 57.8562 73.6132 58.4504C74.6485 59.0445 75.8532 59.3416 77.1944 59.3416C78.5355 59.3416 79.7449 59.0398 80.7755 58.4504C81.8108 57.8562 82.6296 57.0262 83.2178 55.9794C83.8014 54.9372 84.0978 53.7253 84.0978 52.3813C84.0978 51.0374 83.7967 49.8019 83.2084 48.755C82.6155 47.7128 81.792 46.8782 80.7567 46.284L80.752 46.2793ZM79.2697 56.0737C78.672 56.4321 77.9755 56.616 77.1944 56.616C76.4132 56.616 75.7168 56.4321 75.1191 56.0737C74.5215 55.7153 74.0462 55.2154 73.698 54.5835C73.3544 53.9516 73.1756 53.2066 73.1756 52.3719C73.1756 51.5372 73.3497 50.7874 73.698 50.1508C74.0415 49.5142 74.5215 49.0096 75.1144 48.6512C75.712 48.2929 76.4085 48.1089 77.1897 48.1089C77.9708 48.1089 78.6673 48.2929 79.265 48.6512C79.8626 49.0096 80.3332 49.5142 80.672 50.1508C81.0108 50.7922 81.1802 51.5419 81.1802 52.3766C81.1802 53.2113 81.0108 53.9564 80.672 54.5883C80.3379 55.2154 79.8626 55.7153 79.265 56.0784L79.2697 56.0737Z" fill="white"/>
<path d="M99.821 39.833C99.3975 39.833 99.0351 39.9745 98.7528 40.248C98.4657 40.5262 98.3198 40.894 98.3198 41.3373V47.1517C97.8492 46.6896 97.3034 46.3076 96.6916 46.0058C95.854 45.5955 94.9269 45.388 93.9434 45.388C92.7246 45.388 91.614 45.6993 90.6399 46.3123C89.6705 46.9253 88.8988 47.76 88.3388 48.8069C87.7835 49.8491 87.5011 51.0421 87.5011 52.3531C87.5011 53.664 87.8117 54.8665 88.4188 55.9181C89.0258 56.9697 89.8635 57.8091 90.9034 58.4221C91.9434 59.0304 93.1293 59.3417 94.4281 59.3417C95.7269 59.3417 96.9081 59.0304 97.9387 58.4221C98.9692 57.8138 99.8022 56.9697 100.409 55.9228C101.016 54.8712 101.327 53.6687 101.327 52.3578V41.3467C101.327 40.9035 101.186 40.5356 100.908 40.2574C100.63 39.9792 100.263 39.8377 99.821 39.8377V39.833ZM94.4234 56.6113C93.6752 56.6113 92.9881 56.4274 92.3858 56.0596C91.7787 55.6917 91.294 55.1777 90.9411 54.5317C90.5882 53.8857 90.4093 53.15 90.4093 52.3436C90.4093 51.5373 90.5882 50.7922 90.9411 50.1603C91.294 49.5284 91.7787 49.0238 92.3858 48.656C92.9881 48.2882 93.6752 48.1043 94.4234 48.1043C95.1716 48.1043 95.8775 48.2882 96.4751 48.656C97.0728 49.0238 97.5528 49.5284 97.8963 50.1603C98.2398 50.7922 98.4187 51.5278 98.4187 52.3484C98.4187 53.1689 98.2445 53.8904 97.8963 54.5364C97.5528 55.1825 97.0728 55.6965 96.4751 56.0643C95.8775 56.4321 95.1905 56.616 94.4234 56.616V56.6113Z" fill="white"/>
<path d="M115.553 46.2606C114.612 45.6806 113.478 45.3882 112.179 45.3882C110.88 45.3882 109.685 45.69 108.668 46.2842C107.652 46.8783 106.842 47.7083 106.264 48.7552C105.69 49.7973 105.398 51.014 105.398 52.3768C105.398 53.7396 105.708 54.9374 106.315 55.9795C106.922 57.0264 107.779 57.8564 108.852 58.4505C109.925 59.04 111.162 59.3418 112.537 59.3418C113.304 59.3418 114.113 59.2003 114.951 58.9174C115.788 58.6345 116.499 58.2619 117.068 57.8139C117.501 57.4838 117.576 57.0971 117.562 56.8331C117.544 56.47 117.365 56.1352 117.031 55.8428C116.772 55.6211 116.461 55.5268 116.108 55.5221C115.769 55.5316 115.454 55.6447 115.172 55.8569C114.871 56.0833 114.471 56.2813 113.981 56.4558C113.492 56.6303 113.007 56.7199 112.541 56.7199C111.675 56.7199 110.904 56.5266 110.245 56.154C109.586 55.7768 109.059 55.258 108.682 54.612C108.49 54.2819 108.344 53.9094 108.25 53.5038H117.073C117.468 53.5038 117.798 53.3765 118.056 53.1266C118.32 52.8719 118.452 52.5513 118.452 52.1693C118.452 50.8631 118.202 49.6889 117.713 48.6797C117.219 47.6611 116.489 46.8548 115.548 46.2747L115.553 46.2606ZM112.184 48.0101C112.927 48.0101 113.567 48.1798 114.08 48.5194C114.598 48.8589 115.002 49.3305 115.285 49.9199C115.445 50.25 115.562 50.6178 115.638 51.014H108.282C108.362 50.6886 108.466 50.3868 108.598 50.118C108.908 49.4672 109.374 48.9485 109.977 48.576C110.579 48.2034 111.322 48.0148 112.184 48.0148V48.0101Z" fill="white"/>
<path d="M138.874 45.9539C138.055 45.5766 137.143 45.3833 136.159 45.3833C134.846 45.3833 133.665 45.6851 132.648 46.2793C131.627 46.8734 130.818 47.7081 130.234 48.7597C129.651 49.8113 129.354 51.0232 129.354 52.3719C129.354 53.7206 129.656 54.8806 130.244 55.9228C130.837 56.9649 131.665 57.8043 132.705 58.4174C133.745 59.0257 134.95 59.3369 136.277 59.3369C138.074 59.3369 139.599 58.7663 140.808 57.6393C141.095 57.3516 141.218 57.0215 141.175 56.6537C141.133 56.3 140.95 55.9841 140.62 55.7153C140.357 55.4889 140.046 55.3899 139.698 55.4229C139.373 55.4512 139.053 55.588 138.752 55.8332C138.427 56.102 138.06 56.3 137.674 56.4226C137.279 56.55 136.808 56.616 136.277 56.616C135.481 56.616 134.776 56.4321 134.178 56.0643C133.58 55.6964 133.105 55.1919 132.771 54.5647C132.432 53.9328 132.263 53.1971 132.263 52.3766C132.263 51.5089 132.432 50.745 132.761 50.1131C133.091 49.4859 133.552 48.9908 134.131 48.6418C134.71 48.2929 135.392 48.1137 136.159 48.1137C137.265 48.1137 138.159 48.4956 138.907 49.2879C139.171 49.5519 139.467 49.717 139.792 49.7877C140.14 49.8585 140.465 49.7877 140.752 49.5849C141.095 49.3397 141.307 49.0379 141.387 48.7031C141.472 48.34 141.368 47.9911 141.086 47.6657C140.437 46.9159 139.693 46.3406 138.874 45.968V45.9539Z" fill="white"/>
<path d="M154.951 46.2606C154.01 45.6806 152.876 45.3882 151.577 45.3882C150.278 45.3882 149.083 45.69 148.066 46.2842C147.05 46.8783 146.24 47.7083 145.662 48.7552C145.087 49.7973 144.796 51.014 144.796 52.3768C144.796 53.7396 145.106 54.9374 145.713 55.9795C146.32 57.0264 147.177 57.8564 148.25 58.4505C149.323 59.04 150.56 59.3418 151.934 59.3418C152.701 59.3418 153.511 59.2003 154.349 58.9174C155.186 58.6345 155.897 58.2619 156.466 57.8139C156.899 57.4838 156.974 57.0971 156.96 56.8331C156.941 56.47 156.763 56.1352 156.429 55.8428C156.17 55.6211 155.864 55.5268 155.506 55.5221C155.167 55.5316 154.852 55.6447 154.57 55.8569C154.269 56.0833 153.869 56.2813 153.379 56.4558C152.89 56.6303 152.405 56.7199 151.939 56.7199C151.073 56.7199 150.302 56.5266 149.643 56.154C148.984 55.7768 148.457 55.258 148.08 54.612C147.887 54.2819 147.742 53.9094 147.647 53.5038H156.471C156.866 53.5038 157.196 53.3765 157.454 53.1266C157.718 52.8719 157.85 52.5513 157.85 52.1693C157.85 50.8631 157.6 49.6889 157.111 48.6797C156.617 47.6611 155.887 46.8548 154.946 46.2747L154.951 46.2606ZM151.581 48.0101C152.325 48.0101 152.965 48.1798 153.478 48.5194C153.996 48.8589 154.4 49.3305 154.683 49.9199C154.843 50.25 154.96 50.6178 155.036 51.014H147.68C147.76 50.6886 147.864 50.3868 147.996 50.118C148.306 49.4672 148.772 48.9485 149.374 48.576C149.977 48.2034 150.72 48.0148 151.581 48.0148V48.0101Z" fill="white"/>
<path d="M170.442 45.8549C169.915 45.5059 169.162 45.3362 168.136 45.3362C167.11 45.3362 166.193 45.5767 165.35 46.0482C164.993 46.251 164.659 46.4915 164.353 46.765C164.32 46.3831 164.198 46.0813 163.981 45.8643C163.727 45.6097 163.36 45.4824 162.885 45.4824C162.409 45.4824 162.061 45.6144 161.798 45.8785C161.534 46.1378 161.402 46.5057 161.402 46.9678V57.7619C161.402 58.2382 161.534 58.6107 161.798 58.8654C162.056 59.1153 162.423 59.2426 162.88 59.2426C163.336 59.2426 163.727 59.1106 163.981 58.8465C164.23 58.5872 164.358 58.2193 164.358 57.7619V50.712C164.358 50.0424 164.565 49.5048 164.988 49.071C165.421 48.6277 166.028 48.3212 166.79 48.1561C167.567 47.9864 168.461 48.0052 169.445 48.2033C169.689 48.2599 169.925 48.2693 170.132 48.2316C170.357 48.1892 170.56 48.0901 170.734 47.9392C170.913 47.7789 171.035 47.5525 171.096 47.2837C171.195 46.9018 171.162 46.3406 170.442 45.8643V45.8549Z" fill="white"/>
<path d="M185.722 39.833C185.298 39.833 184.936 39.9745 184.653 40.248C184.366 40.5262 184.22 40.894 184.22 41.3373V47.1517C183.75 46.6896 183.204 46.3076 182.592 46.0058C181.755 45.5955 180.828 45.388 179.844 45.388C178.625 45.388 177.515 45.6993 176.541 46.3123C175.571 46.9253 174.799 47.76 174.239 48.8069C173.684 49.8491 173.402 51.0421 173.402 52.3531C173.402 53.664 173.712 54.8665 174.319 55.9181C174.926 56.9697 175.764 57.8091 176.804 58.4221C177.844 59.0304 179.03 59.3417 180.329 59.3417C181.628 59.3417 182.809 59.0304 183.839 58.4221C184.87 57.8138 185.703 56.9697 186.31 55.9228C186.917 54.8712 187.227 53.6687 187.227 52.3578V41.3467C187.227 40.9035 187.086 40.5356 186.809 40.2574C186.531 39.9792 186.164 39.8377 185.722 39.8377V39.833ZM180.324 56.6113C179.576 56.6113 178.889 56.4274 178.286 56.0596C177.679 55.6917 177.195 55.1777 176.842 54.5317C176.489 53.8857 176.31 53.15 176.31 52.3436C176.31 51.5373 176.489 50.7922 176.842 50.1603C177.195 49.5284 177.679 49.0238 178.286 48.656C178.889 48.2882 179.576 48.1043 180.324 48.1043C181.072 48.1043 181.778 48.2882 182.376 48.656C182.973 49.0238 183.453 49.5284 183.797 50.1603C184.14 50.7922 184.319 51.5278 184.319 52.3484C184.319 53.1689 184.145 53.8904 183.797 54.5364C183.453 55.1825 182.973 55.6965 182.376 56.0643C181.778 56.4321 181.091 56.616 180.324 56.616V56.6113Z" fill="white"/>
<path d="M193.721 45.4825C193.297 45.4825 192.935 45.624 192.652 45.8975C192.365 46.1757 192.22 46.5435 192.22 46.9868V57.7338C192.22 58.1629 192.365 58.5213 192.648 58.8089C192.93 59.0966 193.292 59.2381 193.721 59.2381C194.149 59.2381 194.53 59.0919 194.808 58.8042C195.081 58.5213 195.222 58.1582 195.222 57.7338V46.9868C195.222 46.5435 195.081 46.1757 194.803 45.8975C194.525 45.6193 194.163 45.4778 193.716 45.4778L193.721 45.4825Z" fill="white"/>
<path d="M193.722 40.1443C193.214 40.1443 192.772 40.3282 192.409 40.696C192.042 41.0638 191.859 41.5024 191.859 42.0117C191.859 42.521 192.042 42.9642 192.409 43.3274C192.772 43.6952 193.214 43.8791 193.722 43.8791C194.23 43.8791 194.673 43.6952 195.035 43.3274C195.402 42.9642 195.586 42.521 195.586 42.0117C195.586 41.5024 195.402 41.0591 195.035 40.696C194.673 40.3282 194.23 40.1443 193.722 40.1443Z" fill="white"/>
<path d="M210.658 57.0546L206.159 51.5043L210.39 47.7177C210.681 47.4442 210.841 47.1235 210.86 46.7604C210.879 46.3973 210.752 46.0577 210.479 45.7701C210.22 45.473 209.9 45.308 209.528 45.2891C209.157 45.2655 208.818 45.4023 208.526 45.6711L203.128 50.4999V41.2855C203.128 40.8564 202.992 40.5027 202.724 40.2339C202.456 39.9651 202.103 39.8284 201.674 39.8284C201.246 39.8284 200.893 39.9651 200.625 40.2339C200.357 40.5027 200.22 40.8564 200.22 41.2855V57.7761C200.22 58.2053 200.357 58.5589 200.625 58.8277C200.893 59.0965 201.246 59.2333 201.674 59.2333C202.103 59.2333 202.456 59.0965 202.724 58.8277C202.992 58.5589 203.128 58.2053 203.128 57.7761V54.2111L204.023 53.4142L208.427 58.8702C208.686 59.1861 209.011 59.3653 209.401 59.3936C209.439 59.3936 209.481 59.3983 209.519 59.3983C209.858 59.3983 210.168 59.2852 210.451 59.0541C210.78 58.7806 210.964 58.4505 210.997 58.0779C211.025 57.7101 210.912 57.3612 210.658 57.0499V57.0546Z" fill="white"/>
<path d="M68.1558 23.7244C67.2006 23.2198 65.8876 22.7954 64.2547 22.47C63.1112 22.239 62.2359 21.9985 61.6524 21.758C61.1065 21.5316 60.7394 21.2864 60.5653 21.0176C60.3912 20.7488 60.3018 20.4517 60.3018 20.1169C60.3018 19.5982 60.5747 19.2162 61.1347 18.938C61.7512 18.6362 62.5183 18.4806 63.4218 18.4806C64.2076 18.4806 64.9088 18.5749 65.5065 18.7588C66.09 18.938 66.6406 19.2775 67.1441 19.768C67.5064 20.1075 67.9535 20.3244 68.4758 20.4187C69.0217 20.5178 69.5017 20.4282 69.9158 20.1405C70.3252 19.834 70.5464 19.4426 70.5746 18.9805C70.5982 18.5325 70.4382 18.0986 70.0946 17.7072C69.4217 16.8773 68.5041 16.2171 67.37 15.7502C66.2453 15.2834 64.937 15.0476 63.4829 15.0476C62.3583 15.0476 61.2618 15.2315 60.2265 15.5993C59.1771 15.9672 58.3018 16.5378 57.6242 17.2923C56.9324 18.0656 56.5842 19.0465 56.5842 20.2112C56.5842 21.5411 57.1113 22.6775 58.1465 23.5877C59.1583 24.4789 60.7912 25.1533 63.0124 25.5965C64.6406 25.8889 65.77 26.2661 66.3723 26.7094C66.937 27.1291 67.2006 27.6054 67.1817 28.1666C67.1629 28.723 66.8711 29.1663 66.2923 29.5294C65.6806 29.9113 64.7676 30.1047 63.5771 30.1047C62.6312 30.1047 61.7606 29.9349 60.9889 29.5954C60.2218 29.2559 59.6618 28.8928 59.3183 28.5108C58.9748 28.1383 58.5559 27.9213 58.0712 27.86C57.5771 27.7987 57.0783 27.9638 56.5936 28.3505C56.1701 28.6758 55.9207 29.105 55.8595 29.619C55.7936 30.1424 55.9536 30.614 56.3395 31.029C57.0736 31.7646 58.1136 32.3823 59.4265 32.8586C60.73 33.3302 62.17 33.5707 63.7041 33.5707C65.2382 33.5707 66.5935 33.3208 67.6476 32.835C68.7111 32.3399 69.5346 31.6656 70.0852 30.8262C70.6405 29.9868 70.9229 29.0295 70.9229 27.9874C70.9229 27.0772 70.7017 26.2614 70.2688 25.5588C69.8358 24.8609 69.1205 24.2478 68.1464 23.7291L68.1558 23.7244Z" fill="white"/>
<path d="M88.8568 16.2359C87.4874 15.4484 85.8968 15.0522 84.1321 15.0522C82.3674 15.0522 80.7486 15.4531 79.3745 16.2359C78.0004 17.0234 76.9087 18.1269 76.1228 19.5133C75.3369 20.8997 74.9417 22.5171 74.9417 24.3279C74.9417 26.1387 75.3416 27.7279 76.1228 29.1096C76.9087 30.496 78.0004 31.5995 79.3745 32.387C80.7439 33.1745 82.3439 33.5706 84.1321 33.5706C85.9204 33.5706 87.5156 33.1698 88.8897 32.387C90.2638 31.5995 91.3509 30.496 92.1273 29.1096C92.8991 27.7232 93.2944 26.1152 93.2944 24.3279C93.2944 22.5407 92.8944 20.8997 92.1132 19.5133C91.3274 18.1269 90.2309 17.0234 88.8615 16.2359H88.8568ZM86.965 29.369C86.1509 29.8594 85.1957 30.1093 84.1321 30.1093C83.0686 30.1093 82.1133 29.8594 81.2992 29.369C80.4851 28.8785 79.831 28.1948 79.3651 27.3365C78.8945 26.4736 78.6545 25.4644 78.6545 24.3279C78.6545 23.1915 78.8945 22.1729 79.3651 21.3005C79.8357 20.4328 80.4851 19.7443 81.2992 19.2539C82.1133 18.7635 83.0639 18.5183 84.1321 18.5183C85.2004 18.5183 86.1509 18.7682 86.965 19.2539C87.7792 19.7443 88.4239 20.4328 88.885 21.3005C89.3462 22.1729 89.5815 23.1915 89.5815 24.3279C89.5815 25.4644 89.3462 26.4783 88.885 27.3412C88.4286 28.1995 87.7792 28.8833 86.965 29.3737V29.369Z" fill="white"/>
<path d="M104.231 29.652H103.422C103.05 29.652 102.744 29.4445 102.495 29.0106C102.217 28.5391 102.081 27.9213 102.081 27.1715V9.49725C102.081 8.95024 101.902 8.49282 101.549 8.13443C101.196 7.78076 100.739 7.60156 100.194 7.60156C99.6477 7.60156 99.1913 7.78076 98.8383 8.13443C98.4854 8.4881 98.3066 8.94552 98.3066 9.49254V27.1715C98.3066 28.374 98.523 29.4492 98.9466 30.3782C99.3748 31.3166 99.9818 32.0664 100.749 32.6087C101.525 33.1557 102.424 33.4339 103.427 33.4339H103.492C104.194 33.4339 104.782 33.2641 105.238 32.9293C105.718 32.5757 105.963 32.1088 105.963 31.5429C105.963 30.9771 105.803 30.5479 105.488 30.1943C105.163 29.8312 104.744 29.6472 104.231 29.6472V29.652Z" fill="white"/>
<path d="M124.78 15.1465C124.234 15.1465 123.773 15.3257 123.411 15.6746C123.044 16.0283 122.86 16.4999 122.86 17.0705V26.2C122.86 26.9168 122.658 27.5722 122.263 28.1475C121.858 28.7323 121.312 29.2038 120.634 29.5481C119.957 29.8923 119.166 30.0668 118.286 30.0668C117.364 30.0668 116.521 29.8876 115.787 29.5292C115.067 29.1756 114.484 28.6238 114.065 27.8929C113.637 27.1525 113.425 26.1905 113.425 25.0352V17.0705C113.425 16.5235 113.241 16.0613 112.874 15.6935C112.512 15.3304 112.046 15.1465 111.5 15.1465C110.954 15.1465 110.493 15.3304 110.126 15.6982C109.764 16.0613 109.576 16.5282 109.576 17.0752V25.0399C109.576 26.8696 109.929 28.4399 110.63 29.7037C111.331 30.9769 112.305 31.9531 113.519 32.6133C114.729 33.2687 116.112 33.6036 117.641 33.6036C119.171 33.6036 120.47 33.2782 121.637 32.6321C122.084 32.3869 122.498 32.0993 122.879 31.7786C122.931 32.2124 123.11 32.585 123.411 32.8915C123.773 33.2546 124.234 33.4432 124.785 33.4432C125.335 33.4432 125.825 33.2593 126.178 32.8915C126.531 32.5284 126.705 32.0662 126.705 31.5192V17.0799C126.705 16.5093 126.526 16.0425 126.173 15.6888C125.82 15.3351 125.354 15.1559 124.785 15.1559L124.78 15.1465Z" fill="white"/>
<path d="M144.41 23.7244C143.455 23.2198 142.142 22.7954 140.509 22.47C139.366 22.239 138.49 21.9985 137.907 21.758C137.361 21.5316 136.994 21.2864 136.82 21.0176C136.646 20.7488 136.556 20.4517 136.556 20.1169C136.556 19.5982 136.829 19.2162 137.389 18.938C138.006 18.6362 138.773 18.4806 139.676 18.4806C140.462 18.4806 141.163 18.5749 141.761 18.7588C142.344 18.938 142.895 19.2775 143.399 19.768C143.761 20.1075 144.208 20.3244 144.73 20.4187C145.276 20.5178 145.756 20.4282 146.17 20.1405C146.58 19.834 146.801 19.4426 146.829 18.9805C146.853 18.5325 146.693 18.0986 146.349 17.7072C145.676 16.8773 144.759 16.2171 143.624 15.7502C142.5 15.2834 141.191 15.0476 139.737 15.0476C138.613 15.0476 137.516 15.2315 136.481 15.5993C135.432 15.9672 134.556 16.5378 133.879 17.2923C133.187 18.0656 132.839 19.0465 132.839 20.2112C132.839 21.5411 133.366 22.6775 134.401 23.5877C135.413 24.4789 137.046 25.1533 139.267 25.5965C140.895 25.8889 142.024 26.2661 142.627 26.7094C143.191 27.1291 143.455 27.6054 143.436 28.1666C143.417 28.723 143.126 29.1663 142.547 29.5294C141.935 29.9113 141.022 30.1047 139.832 30.1047C138.886 30.1047 138.015 29.9349 137.243 29.5954C136.476 29.2559 135.916 28.8928 135.573 28.5108C135.229 28.1383 134.81 27.9213 134.326 27.86C133.832 27.7987 133.333 27.9638 132.848 28.3505C132.425 28.6758 132.175 29.105 132.114 29.619C132.048 30.1424 132.208 30.614 132.594 31.029C133.328 31.7646 134.368 32.3823 135.681 32.8586C136.984 33.3302 138.424 33.5707 139.959 33.5707C141.493 33.5707 142.848 33.3208 143.902 32.835C144.966 32.3399 145.789 31.6656 146.34 30.8262C146.895 29.9868 147.177 29.0295 147.177 27.9874C147.177 27.0772 146.956 26.2614 146.523 25.5588C146.09 24.8609 145.375 24.2478 144.401 23.7291L144.41 23.7244Z" fill="white"/>
<path d="M154.342 12.8453C154.996 12.8453 155.566 12.6048 156.036 12.1332C156.507 11.6616 156.747 11.0911 156.747 10.4356C156.747 9.7801 156.507 9.20951 156.036 8.73794C155.566 8.26638 154.996 8.02588 154.342 8.02588C153.688 8.02588 153.119 8.26638 152.648 8.73794C152.178 9.20951 151.938 9.7801 151.938 10.4356C151.938 11.0911 152.178 11.6616 152.648 12.1332C153.119 12.6048 153.688 12.8453 154.342 12.8453Z" fill="white"/>
<path d="M154.344 15.1797C153.798 15.1797 153.337 15.3589 152.974 15.7078C152.607 16.0615 152.424 16.5331 152.424 17.1037V31.51C152.424 32.057 152.607 32.5239 152.974 32.887C153.337 33.2501 153.798 33.4387 154.348 33.4387C154.899 33.4387 155.388 33.2548 155.741 32.887C156.094 32.5239 156.268 32.0617 156.268 31.5147V17.1084C156.268 16.5378 156.089 16.0709 155.737 15.7173C155.384 15.3636 154.913 15.1844 154.348 15.1844L154.344 15.1797Z" fill="white"/>
</g>
<defs>
<clipPath id="clip0_3_732">
<rect width="211" height="67" fill="white"/>
</clipPath>
</defs>
</svg>
