<svg width="28" height="46" viewBox="0 0 28 46" fill="none" xmlns="http://www.w3.org/2000/svg">
<path d="M26.918 11.7264C26.4459 8.24916 24.6899 5.13781 21.9734 2.96861C16.3368 -1.53814 8.17453 -0.838821 3.39164 4.55828C1.08266 7.16456 -0.1171 10.522 0.00902108 14.0089C0.135142 17.4925 1.57745 20.782 4.06752 23.2684L17.6821 36.8632L18.0507 36.4488C20.0687 34.1921 20.0784 30.579 18.0766 28.5587L8.29418 18.6937C6.92626 17.3145 6.17923 15.4755 6.18894 13.5135C6.19864 11.5515 6.97153 9.70932 8.36209 8.33334C10.9071 5.81771 14.8783 5.5069 17.8017 7.5984C20.2886 9.37585 21.3946 12.5746 20.557 15.5564C20.1528 16.9875 20.5699 18.5448 21.6468 19.6197L24.0657 22.0381L24.4279 21.546C26.5105 18.7131 27.3934 15.223 26.918 11.7231V11.7264Z" fill="#5AEDC9"/>
<path d="M23.3501 23.2328L9.30871 9.1395L8.94005 9.58305C6.95769 11.9789 6.94152 15.4075 8.91095 17.3922L18.6999 27.2701C19.9999 28.5814 20.7566 30.32 20.8342 32.1622C20.9086 33.9947 20.3071 35.7786 19.1364 37.1837C16.7143 40.0911 12.3841 40.6512 9.28607 38.4593C6.76366 36.6754 5.62857 33.4702 6.46291 30.4851C6.87038 29.0282 6.44027 27.445 5.34723 26.3506L2.96064 23.9645L2.59844 24.4599C-1.56677 30.1807 -0.625719 38.2295 4.73926 42.7815C7.27784 44.9378 10.3985 45.9997 13.5063 45.9997C17.0797 45.9997 20.6402 44.5946 23.2822 41.8329C28.3077 36.5815 28.3368 28.2382 23.3501 23.2328Z" fill="#027DDC"/>
</svg>
