<svg width="145" height="46" viewBox="0 0 145 46" fill="none" xmlns="http://www.w3.org/2000/svg">
<g clip-path="url(#clip0_3_534)">
<path d="M26.918 11.7266C26.4459 8.24944 24.6899 5.13809 21.9734 2.96889C16.3368 -1.53787 8.17453 -0.838542 3.39164 4.55856C1.08266 7.16484 -0.1171 10.5222 0.00902108 14.0091C0.135142 17.4928 1.57745 20.7822 4.06752 23.2687L17.6821 36.8635L18.0507 36.449C20.0687 34.1924 20.0784 30.5793 18.0766 28.559L8.29418 18.694C6.92626 17.3148 6.17923 15.4758 6.18894 13.5138C6.19864 11.5518 6.97153 9.7096 8.36209 8.33361C10.9071 5.81799 14.8783 5.50718 17.8017 7.59868C20.2886 9.37613 21.3946 12.5749 20.557 15.5567C20.1528 16.9878 20.5699 18.545 21.6468 19.6199L24.0657 22.0384L24.4279 21.5463C26.5105 18.7134 27.3934 15.2233 26.918 11.7234V11.7266Z" fill="#5AEDC9"/>
<path d="M23.3501 23.2331L9.30871 9.13978L8.94005 9.58333C6.95769 11.9792 6.94152 15.4078 8.91095 17.3925L18.6999 27.2704C19.9999 28.5816 20.7566 30.3202 20.8342 32.1624C20.9086 33.9949 20.3071 35.7789 19.1364 37.184C16.7143 40.0914 12.3841 40.6515 9.28607 38.4596C6.76366 36.6757 5.62857 33.4704 6.46291 30.4854C6.87038 29.0284 6.44027 27.4452 5.34723 26.3509L2.96064 23.9648L2.59844 24.4602C-1.56677 30.181 -0.625719 38.2297 4.73926 42.7818C7.27784 44.9381 10.3985 46 13.5063 46C17.0797 46 20.6402 44.5949 23.2822 41.8332C28.3077 36.5818 28.3368 28.2385 23.3501 23.2331Z" fill="#027DDC"/>
<path d="M42.7493 35.3612L45.6566 32.7614C45.8571 32.5736 45.967 32.3535 45.98 32.1042C45.9929 31.8549 45.9056 31.6218 45.718 31.4243C45.5402 31.2203 45.3203 31.107 45.0648 31.094C44.8093 31.0778 44.5765 31.1717 44.376 31.3563L40.6667 34.6716V28.3453C40.6667 28.0507 40.573 27.8079 40.3886 27.6233C40.2043 27.4388 39.9618 27.3449 39.6675 27.3449C39.3732 27.3449 39.1306 27.4388 38.9463 27.6233C38.762 27.8079 38.6682 28.0507 38.6682 28.3453V39.6672C38.6682 39.9619 38.762 40.2047 38.9463 40.3892C39.1306 40.5738 39.3732 40.6677 39.6675 40.6677C39.9618 40.6677 40.2043 40.5738 40.3886 40.3892C40.573 40.2047 40.6667 39.9619 40.6667 39.6672V37.2196L41.2812 36.6724L44.3081 40.4184C44.4859 40.6353 44.7091 40.7583 44.9775 40.7777C45.0033 40.7777 45.0325 40.781 45.0583 40.781C45.2912 40.781 45.5046 40.7033 45.6986 40.5446C45.925 40.3568 46.0511 40.1302 46.0738 39.8744C46.0932 39.6219 46.0155 39.3823 45.8409 39.1686L42.7493 35.358V35.3612Z" fill="#1E293A"/>
<path d="M55.4931 31.7739C54.7816 31.366 53.9602 31.1588 53.0483 31.1588C52.1363 31.1588 51.2987 31.366 50.5873 31.7739C49.8758 32.1819 49.3099 32.7517 48.9025 33.4704C48.495 34.186 48.2913 35.0245 48.2913 35.9602C48.2913 36.8958 48.4982 37.7149 48.9025 38.4337C49.3099 39.1524 49.8758 39.7223 50.5873 40.1302C51.2987 40.5381 52.1266 40.7421 53.0483 40.7421C53.9699 40.7421 54.801 40.5349 55.5092 40.1302C56.2207 39.7223 56.7834 39.1524 57.1876 38.4337C57.5886 37.7182 57.7923 36.8861 57.7923 35.9634C57.7923 35.0407 57.5854 34.1924 57.1811 33.4737C56.7737 32.7582 56.2078 32.1851 55.4963 31.7772L55.4931 31.7739ZM54.4744 38.4985C54.0637 38.7445 53.5851 38.8708 53.0483 38.8708C52.5114 38.8708 52.0328 38.7445 51.6221 38.4985C51.2114 38.2524 50.8848 37.9092 50.6455 37.4754C50.4094 37.0415 50.2865 36.53 50.2865 35.9569C50.2865 35.3839 50.4062 34.8691 50.6455 34.432C50.8816 33.9949 51.2114 33.6485 51.6189 33.4024C52.0296 33.1564 52.5082 33.0301 53.045 33.0301C53.5819 33.0301 54.0605 33.1564 54.4712 33.4024C54.8819 33.6485 55.2053 33.9949 55.4381 34.432C55.6709 34.8723 55.7873 35.3871 55.7873 35.9602C55.7873 36.5332 55.6709 37.0448 55.4381 37.4786C55.2085 37.9092 54.8819 38.2524 54.4712 38.5017L54.4744 38.4985Z" fill="#1E293A"/>
<path d="M68.5974 27.3481C68.3063 27.3481 68.0573 27.4452 67.8633 27.633C67.666 27.824 67.5658 28.0766 67.5658 28.3809V32.3729C67.2424 32.0556 66.8672 31.7934 66.4468 31.5861C65.8712 31.3045 65.2341 31.162 64.5583 31.162C63.7207 31.162 62.9575 31.3757 62.2881 31.7966C61.6219 32.2175 61.0916 32.7905 60.7067 33.5093C60.3251 34.2248 60.1311 35.0439 60.1311 35.944C60.1311 36.844 60.3445 37.6696 60.7617 38.3916C61.1789 39.1136 61.7545 39.6899 62.4692 40.1108C63.1839 40.5284 63.9988 40.7421 64.8914 40.7421C65.7839 40.7421 66.5956 40.5284 67.3038 40.1108C68.012 39.6931 68.5844 39.1136 69.0016 38.3948C69.4188 37.6729 69.6322 36.8473 69.6322 35.9472V28.3874C69.6322 28.0831 69.5352 27.8305 69.3444 27.6395C69.1536 27.4485 68.9013 27.3514 68.5974 27.3514V27.3481ZM64.8881 38.8675C64.3739 38.8675 63.9018 38.7413 63.4879 38.4887C63.0707 38.2362 62.7376 37.8833 62.4951 37.4398C62.2525 36.9962 62.1296 36.4911 62.1296 35.9375C62.1296 35.3839 62.2525 34.8723 62.4951 34.4385C62.7376 34.0046 63.0707 33.6582 63.4879 33.4057C63.9018 33.1532 64.3739 33.0269 64.8881 33.0269C65.4023 33.0269 65.8874 33.1532 66.2981 33.4057C66.7088 33.6582 67.0386 34.0046 67.2747 34.4385C67.5108 34.8723 67.6337 35.3774 67.6337 35.9407C67.6337 36.5041 67.514 36.9994 67.2747 37.443C67.0386 37.8865 66.7088 38.2394 66.2981 38.492C65.8874 38.7445 65.4152 38.8708 64.8881 38.8708V38.8675Z" fill="#1E293A"/>
<path d="M79.4084 31.761C78.7617 31.3628 77.9823 31.162 77.0897 31.162C76.1972 31.162 75.3758 31.3692 74.6773 31.7772C73.9788 32.1851 73.4225 32.7549 73.0248 33.4737C72.6302 34.1892 72.4297 35.0245 72.4297 35.9602C72.4297 36.8958 72.6432 37.7182 73.0604 38.4337C73.4775 39.1524 74.0661 39.7223 74.8034 40.1302C75.5407 40.5349 76.3912 40.7421 77.3355 40.7421C77.8626 40.7421 78.4189 40.645 78.9945 40.4507C79.5701 40.2565 80.0584 40.0007 80.4497 39.6931C80.7472 39.4665 80.799 39.201 80.7893 39.0197C80.7764 38.7704 80.6535 38.5405 80.4239 38.3398C80.246 38.1876 80.0326 38.1229 79.79 38.1197C79.5572 38.1261 79.3405 38.2038 79.1465 38.3495C78.9395 38.5049 78.6646 38.6409 78.3283 38.7607C77.992 38.8805 77.6589 38.942 77.3388 38.942C76.7437 38.942 76.2134 38.8093 75.7606 38.5535C75.3079 38.2945 74.9457 37.9383 74.687 37.4948C74.5544 37.2682 74.4541 37.0124 74.3895 36.734H80.453C80.7246 36.734 80.951 36.6465 81.1288 36.4749C81.3099 36.3001 81.4005 36.08 81.4005 35.8177C81.4005 34.9209 81.2291 34.1147 80.8928 33.4219C80.5532 32.7226 80.052 32.1689 79.4052 31.7707L79.4084 31.761ZM77.093 32.9621C77.6039 32.9621 78.0437 33.0787 78.3962 33.3118C78.752 33.5449 79.0301 33.8687 79.2241 34.2734C79.334 34.5 79.4149 34.7525 79.4666 35.0245H74.4121C74.4671 34.8011 74.5382 34.5939 74.6288 34.4093C74.8422 33.9626 75.1624 33.6064 75.5763 33.3506C75.9902 33.0949 76.5012 32.9654 77.093 32.9654V32.9621Z" fill="#1E293A"/>
<path d="M95.4349 31.5505C94.8722 31.2915 94.2449 31.1588 93.569 31.1588C92.6667 31.1588 91.855 31.366 91.1565 31.7739C90.4548 32.1819 89.8986 32.7549 89.4976 33.4769C89.0966 34.1989 88.8928 35.031 88.8928 35.9569C88.8928 36.8829 89.0998 37.6793 89.504 38.3948C89.9115 39.1104 90.4806 39.6867 91.1953 40.1075C91.91 40.5252 92.7379 40.7389 93.6498 40.7389C94.8852 40.7389 95.9329 40.3471 96.764 39.5733C96.9613 39.3758 97.0454 39.1492 97.0163 38.8967C96.9872 38.6539 96.8611 38.4369 96.6347 38.2524C96.4536 38.097 96.2402 38.029 96.0008 38.0517C95.7777 38.0711 95.5578 38.165 95.3508 38.3333C95.1277 38.5179 94.8755 38.6539 94.6103 38.738C94.3386 38.8255 94.0153 38.8708 93.6498 38.8708C93.1033 38.8708 92.6182 38.7445 92.2075 38.492C91.7968 38.2394 91.4702 37.893 91.2406 37.4624C91.0078 37.0286 90.8913 36.5235 90.8913 35.9602C90.8913 35.3644 91.0078 34.8399 91.2341 34.4061C91.4605 33.9755 91.7774 33.6356 92.1752 33.396C92.573 33.1564 93.0419 33.0334 93.569 33.0334C94.3289 33.0334 94.9434 33.2956 95.4576 33.8395C95.6387 34.0208 95.8424 34.1342 96.0655 34.1827C96.3048 34.2313 96.528 34.1827 96.7252 34.0435C96.9613 33.8751 97.1068 33.6679 97.1618 33.4381C97.22 33.1888 97.1489 32.9492 96.9548 32.7258C96.5086 32.211 95.9976 31.816 95.4349 31.5602V31.5505Z" fill="#1E293A"/>
<path d="M106.483 31.761C105.836 31.3628 105.057 31.162 104.164 31.162C103.272 31.162 102.45 31.3692 101.752 31.7772C101.053 32.1851 100.497 32.7549 100.099 33.4737C99.7046 34.1892 99.5042 35.0245 99.5042 35.9602C99.5042 36.8958 99.7176 37.7182 100.135 38.4337C100.552 39.1524 101.14 39.7223 101.878 40.1302C102.615 40.5349 103.466 40.7421 104.41 40.7421C104.937 40.7421 105.493 40.645 106.069 40.4507C106.645 40.2565 107.133 40.0007 107.524 39.6931C107.822 39.4665 107.873 39.201 107.864 39.0197C107.851 38.7704 107.728 38.5405 107.498 38.3398C107.32 38.1876 107.11 38.1229 106.864 38.1197C106.632 38.1261 106.415 38.2038 106.221 38.3495C106.014 38.5049 105.739 38.6409 105.403 38.7607C105.066 38.8805 104.733 38.942 104.413 38.942C103.818 38.942 103.288 38.8093 102.835 38.5535C102.382 38.2945 102.02 37.9383 101.761 37.4948C101.629 37.2682 101.529 37.0124 101.464 36.734H107.527C107.799 36.734 108.025 36.6465 108.203 36.4749C108.384 36.3001 108.475 36.08 108.475 35.8177C108.475 34.9209 108.303 34.1147 107.967 33.4219C107.628 32.7226 107.126 32.1689 106.48 31.7707L106.483 31.761ZM104.167 32.9621C104.678 32.9621 105.118 33.0787 105.471 33.3118C105.826 33.5449 106.104 33.8687 106.299 34.2734C106.408 34.5 106.489 34.7525 106.541 35.0245H101.487C101.541 34.8011 101.613 34.5939 101.703 34.4093C101.917 33.9626 102.237 33.6064 102.651 33.3506C103.065 33.0949 103.576 32.9654 104.167 32.9654V32.9621Z" fill="#1E293A"/>
<path d="M117.129 31.4825C116.766 31.243 116.249 31.1264 115.544 31.1264C114.839 31.1264 114.208 31.2915 113.629 31.6153C113.384 31.7545 113.154 31.9196 112.944 32.1074C112.921 31.8452 112.837 31.638 112.688 31.489C112.514 31.3142 112.262 31.2268 111.935 31.2268C111.608 31.2268 111.369 31.3174 111.188 31.4987C111.007 31.6768 110.916 31.9293 110.916 32.2466V39.6575C110.916 39.9845 111.007 40.2403 111.188 40.4151C111.366 40.5867 111.618 40.6741 111.932 40.6741C112.245 40.6741 112.514 40.5835 112.688 40.4022C112.86 40.2241 112.947 39.9716 112.947 39.6575V34.8173C112.947 34.3575 113.089 33.9885 113.38 33.6906C113.678 33.3863 114.095 33.1758 114.619 33.0625C115.153 32.9459 115.767 32.9589 116.443 33.0949C116.611 33.1337 116.773 33.1402 116.915 33.1143C117.07 33.0852 117.209 33.0172 117.329 32.9136C117.452 32.8035 117.536 32.6481 117.578 32.4635C117.646 32.2013 117.623 31.816 117.129 31.489V31.4825Z" fill="#1E293A"/>
<path d="M127.629 27.3481C127.338 27.3481 127.089 27.4452 126.894 27.633C126.697 27.824 126.597 28.0766 126.597 28.3809V32.3729C126.274 32.0556 125.898 31.7934 125.478 31.5861C124.902 31.3045 124.265 31.162 123.589 31.162C122.752 31.162 121.989 31.3757 121.319 31.7966C120.653 32.2175 120.123 32.7905 119.738 33.5093C119.356 34.2248 119.162 35.0439 119.162 35.944C119.162 36.844 119.376 37.6696 119.793 38.3916C120.21 39.1136 120.786 39.6899 121.5 40.1108C122.215 40.5284 123.03 40.7421 123.923 40.7421C124.815 40.7421 125.627 40.5284 126.335 40.1108C127.043 39.6931 127.616 39.1136 128.033 38.3948C128.45 37.6729 128.663 36.8473 128.663 35.9472V28.3874C128.663 28.0831 128.566 27.8305 128.376 27.6395C128.185 27.4485 127.933 27.3514 127.629 27.3514V27.3481ZM123.919 38.8675C123.405 38.8675 122.933 38.7413 122.519 38.4887C122.102 38.2362 121.769 37.8833 121.526 37.4398C121.284 36.9962 121.161 36.4911 121.161 35.9375C121.161 35.3839 121.284 34.8723 121.526 34.4385C121.769 34.0046 122.102 33.6582 122.519 33.4057C122.933 33.1532 123.405 33.0269 123.919 33.0269C124.434 33.0269 124.919 33.1532 125.329 33.4057C125.74 33.6582 126.07 34.0046 126.306 34.4385C126.542 34.8723 126.665 35.3774 126.665 35.9407C126.665 36.5041 126.545 36.9994 126.306 37.443C126.07 37.8865 125.74 38.2394 125.329 38.492C124.919 38.7445 124.446 38.8708 123.919 38.8708V38.8675Z" fill="#1E293A"/>
<path d="M133.126 31.2268C132.835 31.2268 132.586 31.3239 132.392 31.5117C132.194 31.7027 132.094 31.9552 132.094 32.2596V39.6381C132.094 39.9327 132.194 40.1788 132.388 40.3763C132.582 40.5738 132.831 40.6709 133.126 40.6709C133.42 40.6709 133.682 40.5705 133.873 40.373C134.06 40.1788 134.157 39.9295 134.157 39.6381V32.2596C134.157 31.9552 134.06 31.7027 133.869 31.5117C133.679 31.3207 133.43 31.2235 133.122 31.2235L133.126 31.2268Z" fill="#1E293A"/>
<path d="M133.127 27.5618C132.777 27.5618 132.473 27.6881 132.224 27.9406C131.972 28.1931 131.846 28.4942 131.846 28.8439C131.846 29.1936 131.972 29.4979 132.224 29.7472C132.473 29.9997 132.777 30.126 133.127 30.126C133.476 30.126 133.78 29.9997 134.029 29.7472C134.281 29.4979 134.407 29.1936 134.407 28.8439C134.407 28.4942 134.281 28.1899 134.029 27.9406C133.78 27.6881 133.476 27.5618 133.127 27.5618Z" fill="#1E293A"/>
<path d="M144.765 39.1719L141.673 35.3612L144.58 32.7614C144.781 32.5736 144.891 32.3535 144.904 32.1042C144.917 31.8549 144.829 31.6218 144.642 31.4243C144.464 31.2203 144.244 31.107 143.989 31.094C143.733 31.0778 143.5 31.1717 143.3 31.3563L139.591 34.6716V28.3453C139.591 28.0507 139.497 27.8079 139.313 27.6233C139.128 27.4388 138.886 27.3449 138.591 27.3449C138.297 27.3449 138.055 27.4388 137.87 27.6233C137.686 27.8079 137.592 28.0507 137.592 28.3453V39.6672C137.592 39.9619 137.686 40.2047 137.87 40.3892C138.055 40.5738 138.297 40.6677 138.591 40.6677C138.886 40.6677 139.128 40.5738 139.313 40.3892C139.497 40.2047 139.591 39.9619 139.591 39.6672V37.2196L140.205 36.6724L143.232 40.4184C143.41 40.6353 143.633 40.7583 143.901 40.7777C143.927 40.7777 143.956 40.781 143.982 40.781C144.215 40.781 144.428 40.7033 144.623 40.5446C144.849 40.3568 144.975 40.1302 144.998 39.8744C145.017 39.6219 144.939 39.3823 144.765 39.1686V39.1719Z" fill="#1E293A"/>
<path d="M46.8369 16.2884C46.1805 15.942 45.2782 15.6506 44.1561 15.4272C43.3702 15.2686 42.7687 15.1035 42.3677 14.9383C41.9926 14.7829 41.7404 14.6146 41.6207 14.43C41.5011 14.2455 41.4396 14.0415 41.4396 13.8117C41.4396 13.4555 41.6272 13.1933 42.012 13.0023C42.4357 12.795 42.9628 12.6882 43.5837 12.6882C44.1237 12.6882 44.6056 12.753 45.0163 12.8792C45.4173 13.0023 45.7956 13.2354 46.1417 13.5721C46.3907 13.8052 46.6979 13.9541 47.0568 14.0189C47.432 14.0869 47.7618 14.0253 48.0464 13.8278C48.3278 13.6174 48.4797 13.3487 48.4992 13.0314C48.5153 12.7238 48.4054 12.426 48.1693 12.1572C47.7069 11.5874 47.0763 11.1342 46.2969 10.8136C45.524 10.4931 44.625 10.3312 43.6257 10.3312C42.8528 10.3312 42.0993 10.4575 41.3879 10.71C40.6667 10.9626 40.0652 11.3543 39.5996 11.8723C39.1242 12.4033 38.8849 13.0767 38.8849 13.8764C38.8849 14.7894 39.2471 15.5697 39.9585 16.1945C40.6538 16.8064 41.7759 17.2694 43.3023 17.5738C44.4212 17.7745 45.1974 18.0335 45.6113 18.3378C45.9994 18.626 46.1805 18.953 46.1675 19.3383C46.1546 19.7203 45.9541 20.0246 45.5563 20.2739C45.1359 20.5362 44.5086 20.6689 43.6904 20.6689C43.0404 20.6689 42.4421 20.5524 41.9118 20.3193C41.3847 20.0861 40.9998 19.8369 40.7637 19.5746C40.5277 19.3188 40.2399 19.1699 39.9068 19.1278C39.5672 19.0857 39.2244 19.199 38.8913 19.4645C38.6003 19.6879 38.4289 19.9825 38.3869 20.3354C38.3416 20.6948 38.4515 21.0186 38.7167 21.3035C39.2212 21.8086 39.9359 22.2327 40.8381 22.5597C41.7339 22.8834 42.7235 23.0486 43.7777 23.0486C44.8319 23.0486 45.7633 22.877 46.4877 22.5435C47.2185 22.2035 47.7845 21.7406 48.1628 21.1643C48.5444 20.588 48.7385 19.9307 48.7385 19.2152C48.7385 18.5904 48.5865 18.0303 48.289 17.5479C47.9914 17.0687 47.4999 16.6478 46.8305 16.2917L46.8369 16.2884Z" fill="#1E293A"/>
<path d="M61.0627 11.1471C60.1217 10.6064 59.0286 10.3345 57.8159 10.3345C56.6032 10.3345 55.4908 10.6097 54.5465 11.1471C53.6022 11.6878 52.8519 12.4454 52.3119 13.3972C51.7718 14.3491 51.5002 15.4596 51.5002 16.7028C51.5002 17.9461 51.7751 19.0372 52.3119 19.9858C52.8519 20.9376 53.6022 21.6952 54.5465 22.2359C55.4875 22.7766 56.587 23.0486 57.8159 23.0486C59.0448 23.0486 60.1411 22.7734 61.0853 22.2359C62.0296 21.6952 62.7767 20.9376 63.3102 19.9858C63.8406 19.0339 64.1122 17.9299 64.1122 16.7028C64.1122 15.4758 63.8374 14.3491 63.3005 13.3972C62.7605 12.4454 62.007 11.6878 61.0659 11.1471H61.0627ZM59.7627 20.1639C59.2032 20.5006 58.5468 20.6722 57.8159 20.6722C57.0851 20.6722 56.4286 20.5006 55.8691 20.1639C55.3097 19.8271 54.8602 19.3577 54.54 18.7684C54.2166 18.176 54.0517 17.4831 54.0517 16.7028C54.0517 15.9226 54.2166 15.2233 54.54 14.6243C54.8634 14.0286 55.3097 13.5559 55.8691 13.2192C56.4286 12.8825 57.0818 12.7141 57.8159 12.7141C58.55 12.7141 59.2032 12.8857 59.7627 13.2192C60.3222 13.5559 60.7652 14.0286 61.0821 14.6243C61.399 15.2233 61.5607 15.9226 61.5607 16.7028C61.5607 17.4831 61.399 18.1792 61.0821 18.7717C60.7684 19.3609 60.3222 19.8304 59.7627 20.1671V20.1639Z" fill="#1E293A"/>
<path d="M71.6281 20.3581H71.0719C70.8164 20.3581 70.6062 20.2157 70.4348 19.9178C70.244 19.594 70.1502 19.1699 70.1502 18.6551V6.52055C70.1502 6.14499 70.0273 5.83094 69.7848 5.58488C69.5422 5.34206 69.2286 5.21903 68.8534 5.21903C68.4783 5.21903 68.1646 5.34206 67.9221 5.58488C67.6795 5.8277 67.5566 6.14175 67.5566 6.51731V18.6551C67.5566 19.4807 67.7054 20.2189 67.9964 20.8567C68.2907 21.501 68.7079 22.0158 69.235 22.3881C69.7686 22.7637 70.3863 22.9547 71.0751 22.9547H71.1204C71.6022 22.9547 72.0064 22.8381 72.3201 22.6082C72.65 22.3654 72.8181 22.0449 72.8181 21.6564C72.8181 21.2679 72.7082 20.9733 72.4915 20.7304C72.2684 20.4811 71.9806 20.3549 71.6281 20.3549V20.3581Z" fill="#1E293A"/>
<path d="M85.7494 10.3992C85.3743 10.3992 85.0573 10.5222 84.8083 10.7618C84.5561 11.0046 84.43 11.3284 84.43 11.7202V17.9882C84.43 18.4803 84.2909 18.9303 84.0193 19.3253C83.7412 19.7268 83.366 20.0505 82.9004 20.2869C82.4347 20.5232 81.8914 20.643 81.2867 20.643C80.6528 20.643 80.074 20.52 79.5695 20.2739C79.0747 20.0311 78.6737 19.6523 78.3859 19.1505C78.0916 18.6422 77.9461 17.9817 77.9461 17.1885V11.7202C77.9461 11.3446 77.82 11.0273 77.5677 10.7748C77.3187 10.5255 76.9986 10.3992 76.6234 10.3992C76.2483 10.3992 75.9314 10.5255 75.6791 10.778C75.4301 11.0273 75.3008 11.3478 75.3008 11.7234V17.1917C75.3008 18.4479 75.5433 19.526 76.0252 20.3937C76.507 21.2679 77.1764 21.9381 78.0108 22.3913C78.8419 22.8414 79.7926 23.0712 80.8436 23.0712C81.8946 23.0712 82.7872 22.8478 83.5892 22.4043C83.8964 22.2359 84.181 22.0384 84.4429 21.8183C84.4785 22.1161 84.6014 22.3719 84.8083 22.5823C85.0573 22.8316 85.3743 22.9611 85.7526 22.9611C86.131 22.9611 86.4673 22.8349 86.7099 22.5823C86.9524 22.3331 87.072 22.0158 87.072 21.6402V11.7266C87.072 11.3349 86.9492 11.0144 86.7066 10.7715C86.4641 10.5287 86.1439 10.4057 85.7526 10.4057L85.7494 10.3992Z" fill="#1E293A"/>
<path d="M99.2393 16.2884C98.5828 15.942 97.6806 15.6506 96.5584 15.4272C95.7726 15.2686 95.1711 15.1035 94.7701 14.9383C94.395 14.7829 94.1427 14.6146 94.0231 14.43C93.9034 14.2455 93.842 14.0415 93.842 13.8117C93.842 13.4555 94.0295 13.1933 94.4144 13.0023C94.838 12.795 95.3651 12.6882 95.986 12.6882C96.5261 12.6882 97.0079 12.753 97.4186 12.8792C97.8196 13.0023 98.198 13.2354 98.544 13.5721C98.793 13.8052 99.1002 13.9541 99.4592 14.0189C99.8343 14.0869 100.164 14.0253 100.449 13.8278C100.73 13.6174 100.882 13.3487 100.901 13.0314C100.918 12.7238 100.808 12.426 100.572 12.1572C100.109 11.5874 99.4786 11.1342 98.6992 10.8136C97.9263 10.4931 97.0273 10.3312 96.0281 10.3312C95.2552 10.3312 94.5017 10.4575 93.7902 10.71C93.0691 10.9626 92.4676 11.3543 92.0019 11.8723C91.5265 12.4033 91.2872 13.0767 91.2872 13.8764C91.2872 14.7894 91.6494 15.5697 92.3609 16.1945C93.0561 16.8064 94.1783 17.2694 95.7047 17.5738C96.8236 17.7745 97.5997 18.0335 98.0137 18.3378C98.4017 18.626 98.5828 18.953 98.5699 19.3383C98.5569 19.7203 98.3564 20.0246 97.9587 20.2739C97.5383 20.5362 96.9109 20.6689 96.0927 20.6689C95.4427 20.6689 94.8445 20.5524 94.3141 20.3193C93.787 20.0861 93.4022 19.8369 93.1661 19.5746C92.93 19.3188 92.6422 19.1699 92.3091 19.1278C91.9696 19.0857 91.6268 19.199 91.2937 19.4645C91.0026 19.6879 90.8312 19.9825 90.7892 20.3354C90.7439 20.6948 90.8539 21.0186 91.1191 21.3035C91.6235 21.8086 92.3382 22.2327 93.2405 22.5597C94.1363 22.8834 95.1258 23.0486 96.1801 23.0486C97.2343 23.0486 98.1656 22.877 98.89 22.5435C99.6209 22.2035 100.187 21.7406 100.565 21.1643C100.947 20.588 101.141 19.9307 101.141 19.2152C101.141 18.5904 100.989 18.0303 100.691 17.5479C100.394 17.0687 99.9022 16.6478 99.2328 16.2917L99.2393 16.2884Z" fill="#1E293A"/>
<path d="M106.065 8.81926C106.514 8.81926 106.905 8.65414 107.229 8.33038C107.552 8.00662 107.717 7.61487 107.717 7.16484C107.717 6.71481 107.552 6.32306 107.229 5.9993C106.905 5.67554 106.514 5.51042 106.065 5.51042C105.615 5.51042 105.224 5.67554 104.9 5.9993C104.577 6.32306 104.412 6.71481 104.412 7.16484C104.412 7.61487 104.577 8.00662 104.9 8.33038C105.224 8.65414 105.615 8.81926 106.065 8.81926Z" fill="#1E293A"/>
<path d="M106.066 10.4219C105.69 10.4219 105.373 10.5449 105.124 10.7845C104.872 11.0273 104.746 11.3511 104.746 11.7428V21.6337C104.746 22.0093 104.872 22.3298 105.124 22.5791C105.373 22.8284 105.69 22.9579 106.069 22.9579C106.447 22.9579 106.783 22.8316 107.026 22.5791C107.269 22.3298 107.388 22.0125 107.388 21.637V11.7461C107.388 11.3543 107.265 11.0338 107.023 10.791C106.78 10.5481 106.457 10.4251 106.069 10.4251L106.066 10.4219Z" fill="#1E293A"/>
</g>
<defs>
<clipPath id="clip0_3_534">
<rect width="145" height="46" fill="white"/>
</clipPath>
</defs>
</svg>
